<?xml version="1.0" encoding="utf-8"?>
<!-- Generator: Adobe Illustrator 27.5.0, SVG Export Plug-In . SVG Version: 6.00 Build 0)  -->
<svg version="1.1" xmlns="http://www.w3.org/2000/svg" xmlns:xlink="http://www.w3.org/1999/xlink" x="0px" y="0px"
	 viewBox="0 0 2500 2500" style="enable-background:new 0 0 2500 2500;" xml:space="preserve">
<g id="Background">
	<rect style="fill:#FFFFFF;" width="2500" height="2500"/>
</g>
<g id="Illustration">
	<g id="Remotely_operated_robots_1_">
		<circle style="fill:#F2E6DC;" cx="1250" cy="1249.994" r="914.994"/>
		<g>
			<g>
				<path style="fill:#FFFFFF;" d="M1738.924,1572.85c-0.14,0-0.284-0.014-0.428-0.042l-94.139-18.506
					c-0.573-0.113-1.079-0.449-1.404-0.934c-0.327-0.485-0.446-1.08-0.334-1.654l5.116-26.02
					c-11.827-4.763-23.392-10.428-34.426-16.862l-17.429,19.964c-0.383,0.44-0.928,0.71-1.511,0.75
					c-0.588,0.037-1.158-0.154-1.598-0.539l-72.274-63.096c-0.917-0.801-1.012-2.194-0.211-3.111l17.471-20.013
					c-7.85-10.058-15.025-20.742-21.355-31.802l-25.136,8.597c-0.549,0.189-1.154,0.151-1.684-0.107
					c-0.526-0.258-0.926-0.713-1.115-1.267l-31.044-90.78c-0.394-1.152,0.222-2.406,1.374-2.8l25.073-8.575
					c-1.776-12.653-2.642-25.502-2.573-38.247l-26.023-5.115c-1.193-0.235-1.972-1.394-1.738-2.589l18.504-94.14
					c0.114-0.574,0.45-1.079,0.934-1.406c0.484-0.326,1.077-0.447,1.656-0.333l26.021,5.115
					c4.761-11.822,10.426-23.387,16.861-34.426l-19.962-17.428c-0.917-0.801-1.012-2.194-0.211-3.111l63.095-72.275
					c0.383-0.44,0.928-0.71,1.512-0.75c0.568-0.038,1.156,0.155,1.598,0.539l20.013,17.472c10.053-7.848,20.735-15.02,31.802-21.353
					l-8.595-25.137c-0.394-1.152,0.222-2.406,1.374-2.8l90.778-31.044c0.549-0.188,1.158-0.151,1.684,0.107
					c0.525,0.258,0.926,0.713,1.115,1.267l8.574,25.076c12.652-1.779,25.51-2.649,38.248-2.576l5.116-26.021
					c0.233-1.194,1.378-1.977,2.59-1.738l94.139,18.506c0.573,0.112,1.079,0.449,1.404,0.935c0.327,0.485,0.446,1.08,0.334,1.654
					l-5.116,26.021c11.825,4.762,23.39,10.427,34.426,16.862l17.43-19.964c0.383-0.44,0.928-0.71,1.512-0.75
					c0.588-0.038,1.156,0.154,1.598,0.539l72.274,63.096c0.441,0.385,0.711,0.929,0.751,1.512c0.039,0.583-0.155,1.158-0.54,1.599
					l-17.47,20.013c7.844,10.049,15.016,20.731,21.353,31.801l25.138-8.596c1.141-0.395,2.403,0.22,2.799,1.373l31.044,90.78
					c0.394,1.152-0.222,2.406-1.374,2.8l-25.073,8.575c1.776,12.654,2.642,25.502,2.573,38.248l26.023,5.115
					c1.193,0.235,1.972,1.394,1.738,2.589l-18.504,94.139c-0.237,1.193-1.402,1.973-2.588,1.738l-26.023-5.115
					c-4.758,11.819-10.423,23.384-16.861,34.426l19.962,17.428c0.917,0.801,1.012,2.194,0.211,3.111l-63.095,72.275
					c-0.383,0.44-0.928,0.71-1.511,0.75c-0.592,0.039-1.156-0.154-1.598-0.539l-20.013-17.472
					c-10.055,7.849-20.737,15.021-31.802,21.353l8.595,25.138c0.189,0.553,0.151,1.159-0.108,1.684
					c-0.256,0.525-0.713,0.926-1.266,1.116l-90.78,31.043c-0.549,0.189-1.154,0.151-1.684-0.107
					c-0.525-0.258-0.926-0.713-1.115-1.266l-8.574-25.075c-12.654,1.779-25.545,2.652-38.246,2.576l-5.116,26.021
					C1740.879,1572.121,1739.958,1572.85,1738.924,1572.85z M1647.371,1550.401l89.813,17.655l5.043-25.653
					c0.205-1.035,1.111-1.779,2.164-1.779c0.009,0,0.017,0,0.028,0c13.711,0.177,27.588-0.763,41.2-2.775
					c1.047-0.153,2.065,0.461,2.409,1.468l8.453,24.719l86.608-29.616l-8.475-24.78c-0.344-1.005,0.08-2.113,1.005-2.634
					c11.965-6.738,23.495-14.479,34.265-23.008c0.835-0.661,2.02-0.631,2.818,0.067l19.729,17.224l60.195-68.953l-19.677-17.18
					c-0.801-0.699-0.99-1.87-0.448-2.785c7.019-11.846,13.13-24.323,18.162-37.087c0.392-0.991,1.438-1.558,2.476-1.354
					l25.657,5.043l17.653-89.813l-25.655-5.043c-1.042-0.205-1.791-1.127-1.778-2.191c0.17-13.724-0.762-27.586-2.773-41.203
					c-0.155-1.051,0.463-2.064,1.468-2.408l24.718-8.453l-29.618-86.608l-24.78,8.474c-1.005,0.343-2.114-0.079-2.633-1.005
					c-6.741-11.972-14.482-23.5-23.008-34.265c-0.659-0.833-0.631-2.019,0.069-2.819l17.223-19.729l-68.952-60.196l-17.182,19.681
					c-0.698,0.802-1.871,0.986-2.784,0.447c-11.84-7.015-24.317-13.126-37.088-18.165c-0.99-0.39-1.559-1.432-1.354-2.476
					l5.045-25.653l-89.813-17.655l-5.043,25.653c-0.207,1.043-1.027,1.799-2.192,1.78c-13.728-0.174-27.588,0.763-41.202,2.775
					c-1.053,0.156-2.067-0.461-2.409-1.468l-8.453-24.72l-86.605,29.617l8.472,24.78c0.345,1.005-0.08,2.113-1.005,2.634
					c-11.965,6.738-23.493,14.479-34.263,23.007c-0.835,0.66-2.022,0.631-2.818-0.067l-19.729-17.224l-60.195,68.953l19.677,17.181
					c0.801,0.699,0.99,1.87,0.448,2.785c-7.017,11.842-13.128,24.32-18.164,37.087c-0.392,0.991-1.432,1.558-2.478,1.354
					l-25.652-5.043l-17.654,89.813l25.655,5.043c1.042,0.205,1.791,1.127,1.779,2.191c-0.17,13.724,0.762,27.586,2.773,41.203
					c0.155,1.051-0.463,2.064-1.469,2.408l-24.718,8.453l29.618,86.607l24.778-8.475c1.008-0.343,2.115,0.079,2.633,1.004
					c6.735,11.961,14.476,23.49,23.008,34.266c0.659,0.833,0.631,2.019-0.069,2.819l-17.221,19.729l68.952,60.196l17.182-19.68
					c0.7-0.803,1.871-0.987,2.784-0.447c11.838,7.014,24.315,13.125,37.088,18.165c0.99,0.39,1.559,1.432,1.354,2.476
					L1647.371,1550.401z M1747.845,1440.245c-12.189,0-24.49-1.39-36.726-4.204c-82.57-18.987-136.532-99.356-122.851-182.967
					c7.282-44.504,31.873-82.832,69.245-107.925c37.372-25.092,82.161-33.347,126.107-23.24
					c82.57,18.987,136.532,99.355,122.851,182.967c-7.284,44.505-31.877,82.833-69.249,107.926
					C1810.255,1430.906,1779.429,1440.245,1747.845,1440.245z M1746.906,1122.116c-30.725,0-60.708,9.083-86.935,26.693
					c-36.349,24.406-60.268,61.687-67.35,104.975c-13.308,81.323,39.176,159.491,119.484,177.958
					c42.757,9.83,86.31,1.802,122.659-22.603c36.349-24.406,60.268-61.688,67.352-104.977
					c13.308-81.322-39.176-159.49-119.484-177.957C1770.728,1123.469,1758.761,1122.116,1746.906,1122.116z"/>
			</g>
		</g>
		<g>
			<g>
				<g>
					<g>
						<g>
							<polygon style="fill:#363E44;" points="2025.675,402.336 1923.098,590.954 1731.594,559.613 1897.727,521.254 							"/>
							<polygon style="fill:#363E44;" points="1973.086,346.256 1767.122,384.029 1744.33,578.509 1826.954,428.317 							"/>
						</g>
					</g>
					<g>
						<path style="fill:#363E44;" d="M645.272,864.249l51.614,16.304L596.645,1160.78c-6.474,11.712-68.873,0.927-80.585-5.547
							c-11.74-6.46-45.9-30.661-39.418-42.394L645.272,864.249z"/>
						<path style="fill:#363E44;" d="M705.693,816.799l560.908,63.72l-17.17,46.848l-522.256-59.299l13.558-36.994l-39.187-14.362
							C702.923,816.606,704.296,816.639,705.693,816.799z"/>
						<path style="fill:#363E44;" d="M1732.054,559.585c0.418,0.518,0.786,1.041,1.148,1.594
							c6.844,10.461,4.599,24.629-5.473,32.431l-429.396,332.669l-26.64-40.719L1698.03,555.26
							C1708.632,547.06,1723.854,548.983,1732.054,559.585z"/>
					</g>
					<g>
						<circle style="fill:#776E42;" cx="1273.891" cy="897.896" r="66.332"/>
						<circle style="fill:#8B865C;" cx="1273.891" cy="897.896" r="36.121"/>
					</g>
					<g>
						<circle style="fill:#776E42;" cx="689.302" cy="840.898" r="66.332"/>
						
							<ellipse transform="matrix(0.2298 -0.9732 0.9732 0.2298 -287.47 1318.5616)" style="fill:#8B865C;" cx="689.302" cy="840.898" rx="36.121" ry="36.121"/>
					</g>
					<g>
						<circle style="fill:#776E42;" cx="1743.509" cy="556.012" r="66.332"/>
						
							<ellipse transform="matrix(0.9239 -0.3827 0.3827 0.9239 -80.06 709.5357)" style="fill:#8B865C;" cx="1743.509" cy="556.012" rx="36.121" ry="36.121"/>
					</g>
				</g>
				<g>
					<g>
						<path style="fill:#363E44;" d="M927.553,1779.762H341.775v-226.269h585.779c62.482,0,113.134,50.652,113.134,113.134
							S990.036,1779.762,927.553,1779.762z"/>
						<g>
							
								<ellipse transform="matrix(0.7071 -0.7071 0.7071 0.7071 -916.7112 1113.7679)" style="fill:#8B865C;" cx="886.081" cy="1663.452" rx="73.712" ry="73.712"/>
							
								<ellipse transform="matrix(0.7071 -0.7071 0.7071 0.7071 -975.9534 970.7446)" style="fill:#8B865C;" cx="683.816" cy="1663.452" rx="73.712" ry="73.712"/>
							
								<ellipse transform="matrix(0.2298 -0.9732 0.9732 0.2298 -1245.749 1752.8326)" style="fill:#8B865C;" cx="484.525" cy="1663.452" rx="73.712" ry="73.712"/>
						</g>
					</g>
					<g>
						<g>
							
								<rect x="341.775" y="1109.435" transform="matrix(-1 -1.224647e-16 1.224647e-16 -1 1033.5264 2625.8904)" style="fill:#776E42;" width="349.977" height="407.02"/>
							
								<rect x="445.741" y="1109.435" transform="matrix(-1 -1.224647e-16 1.224647e-16 -1 1241.4594 2625.8904)" style="fill:#8B865C;" width="349.977" height="407.02"/>
							<path style="fill:#363E44;" d="M804.132,1516.672H520.039c-1.219,0-2.205-0.987-2.205-2.205v-318.625
								c0-1.218,0.986-2.205,2.205-2.205h284.093c1.219,0,2.205,0.987,2.205,2.205v318.625
								C806.337,1515.684,805.351,1516.672,804.132,1516.672z M522.244,1512.262h279.683v-314.215H522.244V1512.262z"/>
						</g>
					</g>
				</g>
			</g>
		</g>
		<g>
			<g>
				<g>
					<path style="fill:#84524D;" d="M1037.361,1078.984c28.897,25.314,45.783,72.673,25.872,95.403
						c-19.912,22.73-69.081,12.224-97.979-13.09c-28.897-25.314-26.58-55.85-6.668-78.581
						C978.498,1059.986,1008.463,1053.67,1037.361,1078.984z"/>
					<path style="fill:#84524D;" d="M1003.783,1195.013c-16.958,0.001-34.812-3.772-49.89-10.902
						c-18.071-8.545-30.286-21.16-35.322-36.481c-4.633-14.1-3.156-29.86,4.274-45.576c12.587-26.62,41.021-47.979,83.122-28.076
						c18.599,8.794,36.343,24.434,47.466,41.836c12.195,19.078,15.158,37.521,8.346,51.93
						C1052.954,1186.402,1029.392,1195.011,1003.783,1195.013z M974.761,1070.688c-23.226,0-39.458,15.334-47.929,33.25
						c-6.94,14.675-8.348,29.307-4.072,42.314c4.649,14.144,16.067,25.856,33.018,33.871
						c35.262,16.674,88.631,14.031,102.011-14.265c6.141-12.988,3.275-29.917-8.072-47.67
						c-10.697-16.733-27.756-31.771-45.638-40.225C993.336,1072.884,983.548,1070.688,974.761,1070.688z"/>
					<path style="fill:#84524D;" d="M1073.247,1172.103c0,0,3.344,57.991-137.507,82.642
						c-170.633,29.863-57.148,194.583-230.271,217.015c-173.125,22.431-163.117,145.115-163.117,145.115l47.308,47.308
						c12.618-33.717,45.56-93.638,123.481-109.913c0,0-79.55,37.066-91.584,141.81l104.081,104.081l564.001-431.442
						L1073.247,1172.103z"/>
				</g>
				<g>
					<g>
						<path style="fill:#E2A18D;" d="M1521.675,1095.51c0,0,179.349-190.165,242.736-249.235
							c66.57-62.036,173.887-143.935,185.151-128.775c6.416,8.635-5.911,22.831-41.381,58.583
							c3.601-0.015,14.518,2.64,19.156,11.625c6.862,13.296-2.359,21.791-2.814,22.921c1.22-0.103,15.187-0.542,21.288,7.581
							c6.872,9.149,5.225,18.722,0.759,26.514c3.037-0.163,16.026,1.274,21.491,9.369c7.106,10.524,1.058,23.213-6.716,30.247
							c-14.263,12.902-54.113,47.187-72.872,68.011c-36.915,40.976-148.476,204.089-217.484,249.21
							C1653.908,1132.274,1521.675,1095.51,1521.675,1095.51z"/>
						<path style="fill:#363E44;" d="M1833.709,919.127c-0.345,0-0.695-0.082-1.023-0.253c-1.079-0.566-1.494-1.9-0.926-2.977
							c9.067-17.258,9.289-33.138,9.467-45.897c0.187-13.337,0.336-23.873,11.257-27.875c6.877-2.521,13.959-9.064,20.481-18.922
							c1.699-2.568,1.025-5.236-0.172-6.878c-1.216-1.666-3.596-3.149-6.608-2.296l-56.938,16.036
							c-1.171,0.328-2.388-0.352-2.722-1.525c-0.329-1.172,0.353-2.389,1.525-2.72l56.937-16.036
							c4.274-1.204,8.737,0.342,11.366,3.941c2.603,3.566,2.715,8.241,0.288,11.91c-7.144,10.801-14.762,17.741-22.642,20.629
							c-7.71,2.826-8.171,10.104-8.363,23.797c-0.185,13.229-0.416,29.694-9.975,47.886
							C1835.268,918.698,1834.502,919.127,1833.709,919.127z"/>
						<path style="fill:#363E44;" d="M1929.229,900.227c-0.599,0-1.195-0.243-1.63-0.721c-9.769-10.737-10.824-26.626-3.275-38.475
							l-4.416,2.997c-8.438,5.729-19.757,4.609-26.91-2.661c-4.029-4.094-6.182-9.51-6.063-15.252
							c0.121-5.742,2.495-11.064,6.692-14.986l5.908-5.525c-6.059,0.986-12.473-1.259-16.484-6.371
							c-5.445-6.942-4.81-16.844,1.479-23.033l15.44-15.194c0.868-0.854,2.259-0.842,3.118,0.025
							c0.855,0.868,0.842,2.264-0.026,3.118l-15.44,15.194c-4.687,4.613-5.161,11.993-1.1,17.168
							c4.306,5.491,12.344,6.545,17.923,2.345l11.93-8.985c0.939-0.706,2.261-0.552,3.014,0.343
							c0.754,0.898,0.674,2.228-0.183,3.029l-22.569,21.106c-3.318,3.103-5.198,7.314-5.292,11.856
							c-0.095,4.543,1.608,8.828,4.797,12.067c5.658,5.752,14.613,6.639,21.29,2.106l19.208-13.036
							c0.937-0.635,2.194-0.458,2.922,0.4c0.728,0.861,0.689,2.132-0.09,2.947l-8.158,8.54
							c-9.879,10.341-10.079,26.728-0.454,37.308c0.82,0.901,0.753,2.295-0.146,3.115
							C1930.29,900.038,1929.758,900.227,1929.229,900.227z"/>
					</g>
					<path style="fill:#EFBC73;" d="M1621.546,940.375l174.349,181.307l-297.1,321.412l270.158,706.074h-919.49l48.383-217.92
						l-49.99,29.049c-47.12,27.381-106.945,18.279-143.79-21.876c-48.306-52.646-44.435-134.611,8.689-182.392
						C999.541,1498.083,1350.802,1213.283,1621.546,940.375z"/>
					<path style="fill:#D87355;" d="M922.277,1564.388c0,0,114.421-227.726,435.02-314.944l0.106,166.812l43.312,8.226
						c0,0,11.364,212.647,44.58,327.556L1165.5,1936.13c0,0-63.58-164.841-173.349-255.424l26.068-44.26L922.277,1564.388z"/>
					<path style="fill:#FFFFFF;" d="M1004.144,1492.823c0,0,176.376-154.549,244.825-186.194l226.348,472.463v380.909H1226.7
						L1004.144,1492.823z"/>
					<path style="fill:#E0AA63;" d="M1475.317,1735.52c-1.219,0-2.205-0.987-2.205-2.205v-150.813c0-1.218,0.986-2.205,2.205-2.205
						c1.219,0,2.205,0.987,2.205,2.205v150.813C1477.521,1734.533,1476.535,1735.52,1475.317,1735.52z"/>
					<g>
						<g>
							<path style="fill:#E2A18D;" d="M783.443,1766.516c107.929,13.704,296.338,33.443,312.4,35.747
								c35.565,5.103,111.66,13.87,113.261,38.473c0.532,8.182-4.535,16.453-12.736,21.828c7.625,7.245,10.235,18.186,6.639,27.593
								c-4.726,12.363-17.601,15.355-18.55,15.559c6.591,4.787,10.318,12.389,9.348,19.744
								c-1.338,10.148-11.455,18.588-23.829,18.129c0.965,2.098,4.144,9.689,1.276,18.187c-3.179,9.416-12.498,16.142-23.606,16.975
								c-31.603-4.509-82.012-3.484-142.381-5.933c-141.783-5.754-204.765-14.27-272.752-29.452
								C706.142,1937.478,746.379,1761.81,783.443,1766.516z"/>
							<path style="fill:#363E44;" d="M829.823,1773.541c-0.101,0-0.205-0.008-0.31-0.022c-20.855-2.936-33.927-4.803-41.133-5.875
								c-1.204-0.179-2.035-1.301-1.856-2.505c0.181-1.204,1.305-2.037,2.506-1.856c7.194,1.071,20.255,2.936,41.099,5.87
								c1.206,0.17,2.046,1.285,1.875,2.491C831.849,1772.744,830.904,1773.541,829.823,1773.541z"/>
							<g>
								<path style="fill:#363E44;" d="M1157.314,1846.963c-0.151,0-0.304-0.016-0.459-0.048c-1.191-0.251-1.953-1.421-1.701-2.613
									l3.266-15.47c0.252-1.191,1.412-1.953,2.614-1.702c1.191,0.252,1.953,1.422,1.701,2.613l-3.266,15.47
									C1159.25,1846.251,1158.335,1846.963,1157.314,1846.963z"/>
								<path style="fill:#363E44;" d="M1149.083,1886.229c-0.151,0-0.304-0.016-0.456-0.048c-1.193-0.251-1.955-1.421-1.703-2.612
									l3.266-15.471c0.252-1.191,1.412-1.952,2.614-1.702c1.191,0.252,1.953,1.422,1.701,2.613l-3.266,15.469
									C1151.018,1885.517,1150.103,1886.229,1149.083,1886.229z"/>
								<path style="fill:#363E44;" d="M1141.14,1926.304c-0.151,0-0.304-0.016-0.457-0.048c-1.193-0.251-1.955-1.421-1.703-2.612
									l3.266-15.471c0.252-1.19,1.406-1.951,2.614-1.702c1.191,0.252,1.953,1.422,1.701,2.613l-3.266,15.469
									C1143.076,1925.591,1142.161,1926.304,1141.14,1926.304z"/>
								<path style="fill:#363E44;" d="M1133.188,1962.499c-0.151,0-0.304-0.016-0.456-0.048c-1.193-0.251-1.955-1.421-1.703-2.612
									l3.266-15.471c0.252-1.191,1.41-1.953,2.614-1.702c1.191,0.252,1.953,1.422,1.701,2.613l-3.266,15.469
									C1135.124,1961.787,1134.209,1962.499,1133.188,1962.499z"/>
							</g>
						</g>
					</g>
					<g>
						<path style="fill:#E0AA63;" d="M1101.212,1485.444c-7.674,0-16.48-3.919-23.471-11.202c-5.348-5.574-8.886-12.286-9.958-18.9
							c-1.12-6.913,0.556-12.922,4.722-16.919c4.164-3.995,10.234-5.425,17.098-4.021c6.563,1.344,13.125,5.153,18.474,10.727
							c5.348,5.573,8.886,12.285,9.958,18.899c1.122,6.913-0.555,12.922-4.72,16.919c0,0,0,0,0,0
							C1110.148,1483.987,1105.889,1485.444,1101.212,1485.444z M1084.631,1438.29c-3.656,0-6.795,1.13-9.073,3.316
							c-3.088,2.964-4.304,7.591-3.421,13.031c0.93,5.739,4.05,11.617,8.787,16.552c9.566,9.968,22.731,12.92,29.339,6.577
							c3.088-2.964,4.302-7.592,3.421-13.031c-0.932-5.739-4.052-11.617-8.789-16.552c-4.735-4.935-10.479-8.294-16.176-9.46
							C1087.301,1438.433,1085.934,1438.29,1084.631,1438.29z M1111.788,1479.357h0.021H1111.788z"/>
						<path style="fill:#E0AA63;" d="M1128.675,1501.235c-3.396,0-6.907-0.464-10.393-1.393
							c-15.701-4.186-26.047-16.703-23.06-27.903c1.486-5.578,5.936-9.948,12.529-12.308c6.311-2.258,13.898-2.403,21.361-0.414
							c15.698,4.185,26.044,16.703,23.058,27.903c-1.486,5.578-5.936,9.948-12.529,12.308
							C1136.278,1500.631,1132.553,1501.235,1128.675,1501.235z M1118.713,1462.231c-3.367,0-6.586,0.518-9.476,1.552
							c-5.189,1.856-8.654,5.156-9.756,9.292c-2.358,8.851,6.586,18.948,19.938,22.507c6.606,1.761,13.261,1.654,18.737-0.305
							c5.189-1.857,8.653-5.156,9.756-9.292c2.358-8.851-6.584-18.948-19.936-22.507
							C1124.856,1462.646,1121.725,1462.231,1118.713,1462.231z M1150.041,1486.552h0.022H1150.041z"/>
						<path style="fill:#E0AA63;" d="M1162.753,1504.716c-5.874,0-11.453-1.27-16.08-3.703c-6.199-3.259-9.995-8.21-10.686-13.94
							c-0.691-5.731,1.815-11.442,7.062-16.082c5.019-4.439,12.006-7.393,19.675-8.319c7.674-0.927,15.162,0.281,21.092,3.399
							c6.199,3.259,9.995,8.21,10.686,13.94c1.387,11.509-10.608,22.455-26.74,24.401
							C1166.08,1504.615,1164.405,1504.716,1162.753,1504.716z M1167.753,1466.776c-1.481,0-2.984,0.09-4.498,0.273
							c-6.791,0.82-12.93,3.393-17.283,7.244c-4.128,3.651-6.119,8.002-5.605,12.251c0.512,4.25,3.479,8.002,8.358,10.566
							c5.144,2.705,11.722,3.743,18.508,2.925c13.72-1.656,23.988-10.401,22.89-19.495c-0.512-4.249-3.48-8.001-8.359-10.566
							C1177.767,1467.871,1172.905,1466.776,1167.753,1466.776z"/>
						<path style="fill:#E0AA63;" d="M1194.415,1490.659c-6.86,0-12.43-2.546-15.711-7.189c-3.333-4.713-3.841-10.93-1.432-17.506
							c2.306-6.29,7.049-12.212,13.358-16.671c6.309-4.46,13.472-6.958,20.173-7.034c0.106-0.001,0.211-0.002,0.314-0.002
							c6.86,0,12.43,2.546,15.711,7.189c6.692,9.466,1.341,24.797-11.928,34.178c-6.307,4.46-13.47,6.957-20.171,7.033
							C1194.624,1490.658,1194.518,1490.659,1194.415,1490.659z M1211.115,1446.667c-0.088,0-0.174,0.001-0.263,0.001
							c-5.813,0.066-12.092,2.276-17.677,6.225c-5.585,3.948-9.762,9.129-11.763,14.588c-1.897,5.175-1.58,9.949,0.891,13.443
							c2.431,3.439,6.726,5.324,12.114,5.325c0.086,0,0.174,0,0.263-0.002c5.813-0.066,12.09-2.276,17.675-6.225
							c11.282-7.976,16.161-20.551,10.873-28.032C1220.797,1448.553,1216.502,1446.667,1211.115,1446.667z"/>
						<path style="fill:#E0AA63;" d="M1225.274,1464.358c-3.189,0-6.212-0.806-8.845-2.511c-9.728-6.302-10.456-22.524-1.621-36.163
							c8.836-13.637,23.936-19.604,33.666-13.304c9.728,6.302,10.456,22.525,1.621,36.163
							C1243.65,1458.49,1233.869,1464.358,1225.274,1464.358z M1239.495,1414.224c-7.056,0-15.375,5.195-20.989,13.857
							c-7.51,11.597-7.368,25.085,0.321,30.064c7.684,4.98,20.054-0.405,27.569-12c7.51-11.597,7.368-25.084-0.321-30.064
							C1244.131,1414.821,1241.885,1414.224,1239.495,1414.224z"/>
						<path style="fill:#E0AA63;" d="M1243.666,1424.623c-5.264,0-10.357-2.672-14.469-7.63c-4.278-5.157-7.009-12.235-7.691-19.931
							c-1.434-16.186,6.793-30.186,18.34-31.209c11.48-1.023,22.106,11.312,23.54,27.5c0.683,7.695-0.762,15.143-4.067,20.972
							c-3.454,6.092-8.522,9.728-14.273,10.237C1244.585,1424.603,1244.124,1424.623,1243.666,1424.623z M1240.233,1370.245
							c-9.123,0.809-15.554,12.664-14.335,26.428c0.603,6.813,2.98,13.029,6.692,17.505c3.52,4.242,7.799,6.369,12.068,5.992
							c4.261-0.377,8.107-3.225,10.824-8.019c2.868-5.058,4.115-11.596,3.512-18.408
							C1257.773,1379.981,1249.417,1369.438,1240.233,1370.245z"/>
						<path style="fill:#E0AA63;" d="M1238.093,1382.778c-3.316,0-6.813-0.951-10.288-2.839
							c-5.889-3.199-11.052-8.756-14.542-15.648c-3.492-6.892-4.92-14.343-4.016-20.982c0.943-6.939,4.298-12.198,9.448-14.807
							c10.342-5.239,24.727,2.293,32.071,16.787c7.344,14.496,4.905,30.551-5.434,35.789
							C1243.091,1382.214,1240.647,1382.778,1238.093,1382.778z M1225.982,1331.207c-1.86,0-3.647,0.396-5.292,1.229
							c-3.82,1.935-6.33,6.007-7.073,11.467c-0.784,5.761,0.489,12.294,3.578,18.395c3.092,6.101,7.607,10.99,12.716,13.766
							c4.838,2.63,9.609,3.014,13.427,1.08c8.171-4.139,9.739-17.535,3.497-29.862
							C1241.846,1337.437,1233.359,1331.207,1225.982,1331.207z M1219.693,1330.469h0.022H1219.693z"/>
					</g>
				</g>
				<g>
					<g>
						<path style="fill:#E2A18D;" d="M1233.525,1289.432c-18.105,23.159-96.189-1.784-96.189-1.784l-60.27-66.582
							c-11.815-39.631,10.735-81.336,50.366-93.15c39.631-11.815,81.336,10.735,93.15,50.366
							C1220.582,1178.282,1251.965,1265.844,1233.525,1289.432z"/>
						<path style="fill:#E2A18D;" d="M1194.853,1395.713l-6.389-167.486l-90.645,4.028l6.389,167.486
							c1.112,25.031,22.306,44.421,47.336,43.309C1176.576,1441.937,1195.965,1420.743,1194.853,1395.713z"/>
						<path style="fill:#E2A18D;" d="M1217.96,1199.609c0,0,26.414,15.087,27.003,20.974c0.703,7.026-20.509,17.764-20.509,17.764
							S1218.511,1199.501,1217.96,1199.609z"/>
						<g>
							<path style="fill:#FFFFFF;" d="M1153.119,1225.478c0,0,6.133-12.845,18.328-21.77c2.594-1.899,12.896,22.444,9.573,23.072
								C1166.409,1229.536,1153.119,1225.478,1153.119,1225.478z"/>
							<path style="fill:#363E44;" d="M1191.054,1223.712c17.913-7.881,26.933-26.773,26.933-26.773s-20.022-6.115-37.935,1.766
								c-3.137,1.38-5.984,3.109-8.575,5.004c-1.08,9.101,2.766,17.717,9.526,23.07
								C1184.333,1226.152,1187.73,1225.175,1191.054,1223.712z"/>
						</g>
						<path style="fill:#363E44;" d="M1207.385,1258.708c-1.186,0-2.381-0.167-3.553-0.511c-4.601-1.353-8.109-5.298-8.933-10.05
							c-0.209-1.2,0.597-2.342,1.796-2.55c1.193-0.21,2.338,0.596,2.549,1.795c0.54,3.111,2.829,5.691,5.833,6.574
							c3.118,0.916,6.513-0.098,8.647-2.584c0.799-0.925,2.192-1.028,3.109-0.236c0.924,0.794,1.029,2.186,0.237,3.109
							C1214.605,1257.124,1211.041,1258.708,1207.385,1258.708z"/>
						<path style="fill:#363E44;" d="M1195.36,1302.478c-0.045,0-0.093-0.001-0.138-0.004c-27.218-1.676-57.88-11.39-58.188-11.488
							c-1.158-0.371-1.798-1.611-1.428-2.771c0.37-1.16,1.602-1.8,2.771-1.43c0.302,0.096,30.456,9.645,57.116,11.288
							c1.214,0.075,2.14,1.121,2.065,2.336C1197.487,1301.578,1196.516,1302.478,1195.36,1302.478z"/>
					</g>
					<g>
						<path style="fill:#84524D;" d="M1073.324,1266.54c-21.382-10.247-27.952-60.654-14.815-92.941
							c16.936-41.627,66.056-66.201,105.744-62.852c9.756,0.823,32.05,5.594,39.456,19.5c5.766,10.827-5.222,33.327-23.835,39.794
							c-26.17,9.093-62.843,3.038-49.288,32.859C1171.66,1293.262,1096.818,1277.8,1073.324,1266.54z"/>
					</g>
				</g>
			</g>
			<g>
				<polygon style="fill:#FFFFFF;" points="1559.899,2102.372 1010.893,2102.372 1010.893,2123.969 1578.048,2140.938 				"/>
				<path style="fill:#2D353A;" d="M1941.826,2116.989c-13.637,29.147-42.911,47.77-75.091,47.77h-516.683l231.399-494.559h569.423
					L1941.826,2116.989z"/>
				<path style="fill:#2D353A;" d="M1010.893,2115.108c0,27.555,22.337,49.892,49.892,49.892h476.428l23.344-49.892H1010.893z"/>
				<circle style="fill:#FFFFFF;" cx="1784.492" cy="1891.39" r="34.029"/>
			</g>
		</g>
		<g>
			<g>
				<path style="fill:#D3BBA3;" d="M897.64,603.272l16.971,3.336c-0.106,8.572,0.48,17.043,1.707,25.352l-16.354,5.593l18.94,55.387
					l16.392-5.606c4.159,7.386,8.893,14.436,14.155,21.082l-11.393,13.05l44.097,38.497l11.367-13.021
					c7.227,4.282,14.846,8.031,22.82,11.177l-3.336,16.971l57.437,11.291l3.336-16.971c8.572,0.106,17.043-0.479,25.352-1.707
					l5.593,16.355l55.387-18.941l-5.605-16.392c7.386-4.159,14.436-8.892,21.081-14.155l13.05,11.393l38.496-44.097l-13.02-11.367
					c4.281-7.226,8.031-14.846,11.176-22.82l16.972,3.336l11.291-57.437l-16.972-3.336c0.107-8.572-0.479-17.043-1.707-25.352
					l16.354-5.593l-18.94-55.388l-16.392,5.606c-4.159-7.386-8.892-14.436-14.155-21.082l11.393-13.05l-44.097-38.497
					l-11.367,13.021c-7.226-4.282-14.845-8.031-22.82-11.177l3.336-16.972l-57.437-11.291l-3.336,16.972
					c-8.572-0.107-17.043,0.479-25.353,1.708l-5.592-16.355l-55.388,18.941l5.605,16.392c-7.386,4.159-14.436,8.892-21.081,14.155
					l-13.05-11.393l-38.496,44.097l13.02,11.367c-4.281,7.227-8.031,14.845-11.177,22.82l-16.971-3.336L897.64,603.272z
					 M1097.412,513.906c49.523,11.388,82.134,59.956,73.928,110.105c-9.061,55.376-62.875,91.509-117.561,78.934
					c-49.523-11.388-82.134-59.956-73.928-110.105C988.913,537.463,1042.727,501.331,1097.412,513.906z"/>
			</g>
			<path style="fill:#F2E6DC;" d="M1075.868,738.717c-8.438,0-16.932-0.821-25.396-2.485
				c-58.229-11.447-101.374-60.76-104.92-119.922c-0.073-1.216,0.853-2.26,2.069-2.333c1.229-0.069,2.261,0.853,2.332,2.069
				c3.426,57.157,45.112,104.8,101.372,115.859c32.979,6.484,66.517-0.266,94.423-19.003c27.907-18.738,46.846-47.222,53.329-80.205
				c11.918-60.623-22.898-121.988-80.984-142.742c-1.146-0.41-1.744-1.671-1.333-2.818c0.409-1.146,1.673-1.745,2.818-1.334
				c29.063,10.385,53.576,30.926,69.021,57.839c15.599,27.185,20.857,59.114,14.805,89.905c-6.711,34.139-26.313,63.621-55.2,83.015
				C1126.481,731.149,1101.46,738.717,1075.868,738.717z"/>
		</g>
		<g>
			<g>
				<path style="fill:#363E44;" d="M1941.275,1596.216c-8.178,0-16.355-3.112-22.58-9.338c-12.452-12.45-12.452-32.71,0-45.16
					c12.449-12.452,32.71-12.452,45.16,0c12.451,12.451,12.451,32.71,0,45.16
					C1957.631,1593.104,1949.453,1596.216,1941.275,1596.216z M1941.275,1536.787c-7.049,0-14.096,2.682-19.462,8.048
					c-10.731,10.732-10.731,28.193,0,38.925c10.731,10.731,28.193,10.731,38.924,0s10.731-28.193,0-38.925
					C1955.372,1539.471,1948.323,1536.787,1941.275,1536.787z"/>
				<path style="fill:#363E44;" d="M2003.469,1504.311c-0.564,0-1.128-0.215-1.559-0.646c-33.434-33.433-87.833-33.433-121.266,0
					c-0.861,0.861-2.256,0.861-3.118,0c-0.861-0.861-0.861-2.257,0-3.118c35.152-35.152,92.35-35.152,127.502,0
					c0.861,0.861,0.861,2.257,0,3.118C2004.597,1504.095,2004.033,1504.311,2003.469,1504.311z"/>
				<path style="fill:#363E44;" d="M2053.221,1454.557c-0.564,0-1.128-0.215-1.559-0.646
					c-29.485-29.485-68.687-45.723-110.387-45.723s-80.902,16.238-110.387,45.723c-0.861,0.861-2.256,0.861-3.118,0
					c-0.861-0.861-0.861-2.257,0-3.118c30.318-30.318,70.627-47.015,113.504-47.015s83.186,16.697,113.504,47.015
					c0.861,0.861,0.861,2.257,0,3.118C2054.349,1454.342,2053.785,1454.557,2053.221,1454.557z"/>
				<path style="fill:#363E44;" d="M2102.976,1404.803c-0.564,0-1.128-0.215-1.559-0.646c-88.3-88.3-231.978-88.302-320.282,0
					c-0.861,0.861-2.256,0.861-3.118,0c-0.861-0.861-0.861-2.257,0-3.118c90.025-90.023,236.502-90.02,326.518,0
					c0.861,0.861,0.861,2.257,0,3.118C2104.104,1404.588,2103.54,1404.803,2102.976,1404.803z"/>
			</g>
		</g>
	</g>
</g>
</svg>
